<svg xmlns="http://www.w3.org/2000/svg" viewBox="0 0 512 512">
  <g transform="translate(50,-31)" fill="#000000">
    <polygon points="26,206 116,206 96,224 6,224"/>
    <polygon points="14,240 146,240 122,262 -10,262"/>
    <polygon points="30,278 108,278 90,296 12,296"/>
    <path d="M150 190
             L338 190
             Q352 190 361 201
             L410 246
             Q422 256 422 272
             L422 318
             Q422 330 410 330
             L150 330
             Q138 330 138 318
             L138 202
             Q138 190 150 190 Z"/>
    <circle cx="198" cy="334" r="34"/>
    <circle cx="378" cy="334" r="34"/>
  </g>
</svg>
